<?xml version="1.0" encoding="UTF-8"?>
<svg xmlns="http://www.w3.org/2000/svg" xmlns:xlink="http://www.w3.org/1999/xlink" width="47pt" height="47pt" viewBox="0 0 47 47" version="1.1">
<g id="surface1">
<path style=" stroke:none;fill-rule:nonzero;fill:rgb(23.137255%,34.901961%,59.607843%);fill-opacity:1;" d="M 47 23.5 C 47 36.480469 36.480469 47 23.5 47 C 10.519531 47 0 36.480469 0 23.5 C 0 10.519531 10.519531 0 23.5 0 C 36.480469 0 47 10.519531 47 23.5 Z M 47 23.5 "/>
<path style=" stroke:none;fill-rule:nonzero;fill:rgb(100%,100%,100%);fill-opacity:1;" d="M 29.40625 24.421875 L 25.214844 24.421875 L 25.214844 39.78125 L 18.863281 39.78125 L 18.863281 24.421875 L 15.839844 24.421875 L 15.839844 19.019531 L 18.863281 19.019531 L 18.863281 15.527344 C 18.863281 13.027344 20.046875 9.117188 25.269531 9.117188 L 29.976562 9.136719 L 29.976562 14.378906 L 26.5625 14.378906 C 26.003906 14.378906 25.214844 14.65625 25.214844 15.847656 L 25.214844 19.027344 L 29.964844 19.027344 Z M 29.40625 24.421875 "/>
</g>
</svg>
