<?xml version="1.0" encoding="UTF-8"?>
<svg xmlns="http://www.w3.org/2000/svg" xmlns:xlink="http://www.w3.org/1999/xlink" width="47pt" height="47pt" viewBox="0 0 47 47" version="1.1">
<g id="surface1">
<path style=" stroke:none;fill-rule:nonzero;fill:rgb(23.137255%,34.901961%,59.607843%);fill-opacity:1;" d="M 47 23.5 C 47 36.476562 36.480469 47 23.5 47 C 10.519531 47 0 36.476562 0 23.5 C 0 10.519531 10.519531 0 23.5 0 C 36.480469 0 47 10.519531 47 23.5 Z M 47 23.5 "/>
<path style=" stroke:none;fill-rule:nonzero;fill:rgb(23.137255%,34.901961%,59.607843%);fill-opacity:1;" d="M 8.183594 24.550781 C 8.097656 28.59375 10.882812 32.453125 14.714844 33.710938 C 18.324219 34.925781 22.757812 34.015625 25.160156 30.925781 C 26.914062 28.761719 27.3125 25.875 27.121094 23.179688 C 24.03125 23.148438 20.941406 23.160156 17.855469 23.164062 C 17.851562 24.265625 17.855469 25.363281 17.859375 26.460938 C 19.710938 26.511719 21.5625 26.488281 23.410156 26.527344 C 22.945312 28.128906 21.882812 29.617188 20.265625 30.195312 C 17.148438 31.570312 13.167969 29.773438 12.1875 26.503906 C 11.003906 23.371094 12.941406 19.59375 16.144531 18.679688 C 18.128906 17.984375 20.171875 18.769531 21.871094 19.800781 C 22.730469 18.996094 23.539062 18.136719 24.328125 17.265625 C 22.398438 15.652344 19.917969 14.660156 17.371094 14.878906 C 12.367188 14.9375 7.992188 19.554688 8.183594 24.550781 Z M 8.183594 24.550781 "/>
<path style=" stroke:none;fill-rule:nonzero;fill:rgb(23.137255%,34.901961%,59.607843%);fill-opacity:1;" d="M 33.136719 20.386719 C 33.128906 21.308594 33.117188 22.234375 33.113281 23.152344 C 32.1875 23.164062 31.265625 23.167969 30.347656 23.171875 C 30.347656 24.09375 30.347656 25.007812 30.347656 25.929688 C 31.265625 25.933594 32.191406 25.9375 33.113281 25.949219 C 33.121094 26.871094 33.121094 27.789062 33.132812 28.714844 C 34.046875 28.714844 34.96875 28.710938 35.890625 28.714844 C 35.894531 27.789062 35.898438 26.871094 35.90625 25.945312 C 36.828125 25.9375 37.753906 25.933594 38.675781 25.929688 C 38.675781 25.007812 38.675781 24.09375 38.675781 23.171875 C 37.753906 23.167969 36.828125 23.164062 35.90625 23.15625 C 35.902344 22.234375 35.894531 21.308594 35.890625 20.386719 C 34.96875 20.386719 34.050781 20.386719 33.136719 20.386719 Z M 33.136719 20.386719 "/>
<path style=" stroke:none;fill-rule:nonzero;fill:rgb(100%,100%,100%);fill-opacity:1;" d="M 8.183594 24.550781 C 7.992188 19.554688 12.367188 14.9375 17.371094 14.878906 C 19.917969 14.660156 22.398438 15.652344 24.328125 17.265625 C 23.535156 18.136719 22.730469 18.996094 21.871094 19.800781 C 20.171875 18.769531 18.128906 17.980469 16.144531 18.679688 C 12.941406 19.59375 11.003906 23.371094 12.1875 26.503906 C 13.167969 29.773438 17.148438 31.570312 20.265625 30.195312 C 21.878906 29.617188 22.945312 28.128906 23.410156 26.527344 C 21.5625 26.488281 19.710938 26.511719 17.859375 26.460938 C 17.855469 25.359375 17.851562 24.265625 17.855469 23.164062 C 20.941406 23.160156 24.03125 23.148438 27.121094 23.175781 C 27.3125 25.875 26.914062 28.761719 25.160156 30.925781 C 22.757812 34.015625 18.324219 34.921875 14.714844 33.710938 C 10.882812 32.453125 8.097656 28.59375 8.183594 24.550781 Z M 8.183594 24.550781 "/>
<path style=" stroke:none;fill-rule:nonzero;fill:rgb(100%,100%,100%);fill-opacity:1;" d="M 33.136719 20.386719 C 34.054688 20.386719 34.96875 20.386719 35.890625 20.386719 C 35.894531 21.308594 35.902344 22.234375 35.90625 23.152344 C 36.828125 23.164062 37.753906 23.167969 38.675781 23.171875 C 38.675781 24.09375 38.675781 25.007812 38.675781 25.929688 C 37.753906 25.933594 36.828125 25.9375 35.90625 25.945312 C 35.898438 26.867188 35.894531 27.789062 35.890625 28.714844 C 34.96875 28.710938 34.046875 28.714844 33.132812 28.714844 C 33.121094 27.789062 33.121094 26.867188 33.113281 25.949219 C 32.191406 25.9375 31.265625 25.933594 30.347656 25.929688 C 30.347656 25.007812 30.347656 24.09375 30.347656 23.171875 C 31.265625 23.167969 32.1875 23.164062 33.113281 23.152344 C 33.117188 22.234375 33.128906 21.308594 33.136719 20.386719 Z M 33.136719 20.386719 "/>
</g>
</svg>
