<?xml version="1.0" encoding="UTF-8"?>
<svg xmlns="http://www.w3.org/2000/svg" xmlns:xlink="http://www.w3.org/1999/xlink" width="47pt" height="47pt" viewBox="0 0 47 47" version="1.1">
<g id="surface1">
<path style=" stroke:none;fill-rule:nonzero;fill:rgb(9.411765%,30.980392%,71.372549%);fill-opacity:1;" d="M 23.5 0 C 36.476562 0 47 10.523438 47 23.5 C 47 36.476562 36.476562 47 23.5 47 C 10.523438 47 0 36.476562 0 23.5 C 0 10.523438 10.519531 0 23.5 0 Z M 23.5 0 "/>
<path style=" stroke:none;fill-rule:nonzero;fill:rgb(100%,100%,100%);fill-opacity:1;" d="M 31.609375 10.277344 L 15.386719 10.277344 C 12.570312 10.277344 10.277344 12.570312 10.277344 15.386719 L 10.277344 31.613281 C 10.277344 34.429688 12.570312 36.722656 15.386719 36.722656 L 31.613281 36.722656 C 34.429688 36.722656 36.722656 34.429688 36.722656 31.613281 L 36.722656 15.386719 C 36.722656 12.570312 34.429688 10.277344 31.609375 10.277344 Z M 33.21875 13.234375 L 33.800781 13.234375 L 33.800781 17.621094 L 29.378906 17.636719 L 29.363281 13.25 C 29.363281 13.25 33.21875 13.234375 33.21875 13.234375 Z M 23.5 19.074219 C 27.167969 19.074219 27.925781 22.519531 27.925781 23.5 C 27.925781 25.9375 25.9375 27.921875 23.5 27.921875 C 21.058594 27.921875 19.078125 25.9375 19.078125 23.5 C 19.074219 22.519531 19.832031 19.074219 23.5 19.074219 Z M 33.824219 31.292969 C 33.824219 32.6875 32.6875 33.824219 31.289062 33.824219 L 15.660156 33.824219 C 14.261719 33.824219 13.125 32.691406 13.125 31.292969 L 13.125 20.558594 L 16.796875 20.558594 C 16.457031 21.394531 16.265625 22.539062 16.265625 23.5 C 16.265625 27.488281 19.507812 30.730469 23.496094 30.730469 C 27.484375 30.730469 30.726562 27.488281 30.726562 23.5 C 30.726562 22.539062 30.53125 21.394531 30.191406 20.558594 L 33.820312 20.558594 L 33.820312 31.292969 Z M 33.824219 31.292969 "/>
</g>
</svg>
