<svg xmlns="http://www.w3.org/2000/svg" viewBox="0 0 37.02 30.26"><defs><style>.cls-1{fill:#14a5eb;}</style></defs><title>Ресурс 1</title><g id="Слой_2" data-name="Слой 2"><g id="Слой_1-2" data-name="Слой 1"><path class="cls-1" d="M11.87,1.33A18.39,18.39,0,0,1,19.2,0,19,19,0,0,1,30,3.69a17.92,17.92,0,0,1,3.94,4,16.65,16.65,0,0,1,2.49,5.18,17,17,0,0,1,.35,7.44.64.64,0,0,1-.1.33c-.05.05-.11,0-.14-.07a2.1,2.1,0,0,1-.15-.61,15.51,15.51,0,0,1,0-1.67,13.84,13.84,0,0,0-1.68-6.63,17.09,17.09,0,0,0-4-5,17.31,17.31,0,0,0-3.65-2.4,14.47,14.47,0,0,0-6-1.49,12.14,12.14,0,0,0-3.84.55A12.43,12.43,0,0,0,13,5.68a10.47,10.47,0,0,0-1.14,1.07,7.7,7.7,0,0,0-1.38,2.17,5.64,5.64,0,0,0-.44,2,3.83,3.83,0,0,0,.3,1.64,3.12,3.12,0,0,0,1,1.22,4.42,4.42,0,0,0,2.37.74,9.17,9.17,0,0,0,2.09-.16c1.2-.2,2.38-.51,3.57-.81a20.62,20.62,0,0,1,3.49-.64,6,6,0,0,1,2.78.36,4.3,4.3,0,0,1,1.83,1.49,6.68,6.68,0,0,1,.83,1.56,7.19,7.19,0,0,1,.36,1.11c-.16-.15-.28-.33-.43-.49a6.7,6.7,0,0,0-1.36-1.13A5.11,5.11,0,0,0,24.38,15a6.72,6.72,0,0,0-2.86.55,13.33,13.33,0,0,0-3.32,2.08c-.41.34-.79.7-1.21,1a15.24,15.24,0,0,1-5.41,2.86,13.24,13.24,0,0,1-3.71.51,10.58,10.58,0,0,1-3.29-.57,7.74,7.74,0,0,1-2.44-1.37A6.1,6.1,0,0,1,.5,17.94,6.35,6.35,0,0,1,0,14.89a10.39,10.39,0,0,1,1.3-4.08A20.25,20.25,0,0,1,3.23,8,23.26,23.26,0,0,1,7.17,4,19.45,19.45,0,0,1,11.87,1.33Z"/><path class="cls-1" d="M33.68,14.14a27.78,27.78,0,0,1-1.44,6.79,15.71,15.71,0,0,1-3,5.16,12.31,12.31,0,0,1-2.31,2,12.63,12.63,0,0,1-4.22,1.79c-.51.12-1,.23-1.54.31a8.09,8.09,0,0,1-3.87-.46A5.93,5.93,0,0,1,14.85,28,3.91,3.91,0,0,1,14,25.61a4.17,4.17,0,0,1,.71-2.44,3.51,3.51,0,0,1,1.8-1.29,4.91,4.91,0,0,1,2.19-.2,4.42,4.42,0,0,1,1.72.6,4.53,4.53,0,0,0,2,.7,10.66,10.66,0,0,0,1.38.09,4.78,4.78,0,0,0,.65-.07,12.29,12.29,0,0,0,3.13-.89,10.53,10.53,0,0,0,2.69-1.72,11,11,0,0,0,3-4.53A10.15,10.15,0,0,0,33.68,14.14Z"/></g></g></svg>