<?xml version="1.0" encoding="UTF-8"?>
<svg xmlns="http://www.w3.org/2000/svg" xmlns:xlink="http://www.w3.org/1999/xlink" width="47pt" height="47pt" viewBox="0 0 47 47" version="1.1">
<g id="surface1">
<path style=" stroke:none;fill-rule:nonzero;fill:rgb(23.137255%,34.901961%,59.607843%);fill-opacity:1;" d="M 47 23.5 C 47 36.476562 36.480469 47 23.5 47 C 10.523438 47 0 36.476562 0 23.5 C 0 10.519531 10.523438 0 23.5 0 C 36.480469 0 47 10.519531 47 23.5 Z M 47 23.5 "/>
<path style=" stroke:none;fill-rule:nonzero;fill:rgb(94.509804%,94.901961%,94.901961%);fill-opacity:1;" d="M 37.894531 16.886719 C 36.886719 17.335938 35.804688 17.636719 34.667969 17.773438 C 35.828125 17.078125 36.71875 15.976562 37.136719 14.664062 C 36.054688 15.308594 34.851562 15.777344 33.570312 16.027344 C 32.546875 14.9375 31.085938 14.253906 29.46875 14.253906 C 26.367188 14.253906 23.851562 16.769531 23.851562 19.871094 C 23.851562 20.3125 23.902344 20.742188 24 21.152344 C 19.332031 20.917969 15.191406 18.679688 12.421875 15.28125 C 11.9375 16.113281 11.660156 17.078125 11.660156 18.105469 C 11.660156 20.054688 12.652344 21.773438 14.160156 22.78125 C 13.238281 22.753906 12.371094 22.5 11.617188 22.078125 C 11.613281 22.101562 11.613281 22.125 11.613281 22.148438 C 11.613281 24.871094 13.550781 27.140625 16.121094 27.65625 C 15.648438 27.785156 15.152344 27.855469 14.640625 27.855469 C 14.277344 27.855469 13.925781 27.820312 13.585938 27.753906 C 14.300781 29.984375 16.375 31.609375 18.832031 31.65625 C 16.910156 33.160156 14.488281 34.058594 11.855469 34.058594 C 11.402344 34.058594 10.953125 34.03125 10.515625 33.980469 C 13 35.574219 15.953125 36.503906 19.125 36.503906 C 29.457031 36.503906 35.109375 27.945312 35.109375 20.523438 C 35.109375 20.277344 35.101562 20.035156 35.089844 19.796875 C 36.191406 19.003906 37.140625 18.015625 37.894531 16.886719 Z M 37.894531 16.886719 "/>
</g>
</svg>
