<?xml version="1.0"?>
<svg xmlns="http://www.w3.org/2000/svg" height="512px" version="1.1" viewBox="0 0 593 593.0197" width="512px">
<g id="surface1">
<path d="M 183.960938 217.339844 C 183.960938 226.6875 176.378906 234.265625 167.03125 234.265625 C 157.683594 234.265625 150.101562 226.6875 150.101562 217.339844 C 150.101562 207.988281 157.683594 200.410156 167.03125 200.410156 C 176.378906 200.410156 183.960938 207.988281 183.960938 217.339844 Z M 183.960938 217.339844 " style=" fill-rule:nonzero;fill-opacity:1;" stroke="#cdcdcd" fill="#cdcdcd"/>
<path d="M 505.054688 86.84375 C 388.902344 -28.949219 200.957031 -28.949219 84.800781 86.84375 C 84.503906 87.253906 84.144531 87.613281 83.730469 87.914062 C -29.945312 207 -28.121094 398.242188 90.800781 511.703125 C 205.976562 621.734375 389.773438 619.269531 504.949219 509.1875 C 505.25 508.773438 505.609375 508.414062 506.019531 508.113281 C 622.074219 391.515625 621.644531 202.914062 505.054688 86.84375 Z M 296.507812 576.789062 C 141.804688 576.851562 16.34375 451.480469 16.292969 296.777344 C 16.265625 225.128906 43.699219 156.195312 92.945312 104.148438 L 154.066406 165.375 L 125.996094 165.375 C 112.683594 165.375 101.890625 176.171875 101.890625 189.484375 L 101.890625 399.476562 C 101.890625 412.789062 112.6875 423.582031 125.996094 423.582031 L 412.21875 423.582031 L 488.824219 500.023438 C 436.925781 549.316406 368.082031 576.796875 296.507812 576.789062 Z M 467.019531 181.445312 C 471.457031 181.445312 475.058594 185.046875 475.058594 189.484375 L 475.058594 399.476562 C 475.058594 403.910156 471.457031 407.511719 467.019531 407.511719 L 418.808594 407.511719 L 369.792969 358.496094 C 405.859375 318.632812 402.785156 257.082031 362.925781 221.015625 C 325.816406 187.4375 269.296875 187.46875 232.226562 221.089844 L 192.53125 181.394531 Z M 216.53125 165.375 C 220.007812 155.734375 229.15625 149.304688 239.402344 149.304688 L 353.507812 149.304688 C 363.753906 149.304688 372.902344 155.734375 376.382812 165.375 Z M 263.136719 338.78125 C 282.183594 353.066406 308.371094 353.066406 327.417969 338.78125 L 347.132812 358.496094 C 312.417969 386.988281 261.175781 381.941406 232.679688 347.230469 C 208.054688 317.230469 208.066406 274.003906 232.707031 244.015625 L 252.421875 263.785156 C 234.667969 287.457031 239.46875 321.035156 263.136719 338.78125 Z M 315.632812 326.675781 C 297.84375 337.277344 274.824219 331.441406 264.226562 313.652344 C 257.136719 301.742188 257.1875 286.894531 264.367188 275.03125 Z M 275.082031 263.570312 C 291.816406 251.371094 315.273438 255.046875 327.472656 271.785156 C 337.066406 284.949219 337.066406 302.800781 327.472656 315.960938 Z M 338.882812 327.210938 C 357.015625 303.832031 352.769531 270.179688 329.390625 252.046875 C 309.988281 236.992188 282.835938 237.0625 263.511719 252.210938 L 243.851562 232.175781 C 278.027344 203.042969 329.351562 207.128906 358.488281 241.304688 C 384.402344 271.699219 384.402344 316.417969 358.488281 346.816406 Z M 221.511719 232.550781 C 187.382812 274.160156 193.445312 335.5625 235.054688 369.691406 C 270.984375 399.160156 322.722656 399.160156 358.648438 369.691406 L 396.417969 407.191406 L 125.996094 407.191406 C 121.5625 407.191406 117.960938 403.589844 117.960938 399.152344 L 117.960938 189.320312 C 117.960938 184.886719 121.5625 181.285156 125.996094 181.285156 L 170.140625 181.285156 Z M 500.074219 488.777344 L 434.988281 423.582031 L 467.128906 423.582031 C 480.441406 423.582031 491.234375 412.789062 491.234375 399.476562 L 491.234375 189.320312 C 491.234375 176.007812 480.441406 165.214844 467.128906 165.214844 L 392.9375 165.214844 C 388.988281 146.5 372.476562 133.089844 353.347656 133.074219 L 239.457031 133.074219 C 220.328125 133.089844 203.816406 146.5 199.871094 165.214844 L 176.78125 165.214844 L 104.195312 92.898438 C 217.503906 -12.433594 394.746094 -5.960938 500.074219 107.351562 C 600.007812 214.859375 600.007812 381.273438 500.074219 488.777344 Z M 500.074219 488.777344 " style=" fill-rule:nonzero;fill-opacity:1;" stroke="#cdcdcd" fill="#cdcdcd"/>
<path d="M 402.578125 240.425781 L 439.539062 240.425781 C 452.277344 241.046875 463.105469 231.230469 463.726562 218.488281 C 464.347656 205.75 454.53125 194.925781 441.789062 194.300781 L 404.828125 194.300781 C 392.089844 193.683594 381.261719 203.5 380.640625 216.238281 C 380.019531 228.980469 389.839844 239.804688 402.578125 240.425781 Z M 403.648438 210.375 L 439.539062 210.375 C 443.402344 210.03125 446.804688 212.886719 447.148438 216.75 C 447.488281 220.613281 444.632812 224.015625 440.773438 224.355469 L 404.828125 224.355469 C 400.976562 224.773438 397.507812 221.988281 397.097656 218.136719 C 396.683594 214.285156 399.464844 210.820312 403.316406 210.40625 C 403.421875 210.390625 403.535156 210.386719 403.648438 210.375 Z M 403.648438 210.375 " style=" fill-rule:nonzero;fill-opacity:1;" stroke="#cdcdcd" fill="#cdcdcd"/>
</g>
</svg>
